<?xml version="1.0" standalone="no"?>
<!DOCTYPE svg PUBLIC "-//W3C//DTD SVG 1.1//EN" "http://www.w3.org/Graphics/SVG/1.1/DTD/svg11.dtd">
<svg xmlns="http://www.w3.org/2000/svg">
<metadata>Generated by Fontastic.me</metadata>
<defs>
<font id="conceptforge" horiz-adv-x="512">
<font-face font-family="conceptforge" units-per-em="512" ascent="480" descent="-32"/>
<missing-glyph horiz-adv-x="512" />

<glyph glyph-name="animals" unicode="&#57345;" d="M225 399c0 0-7 0-1 7 5 7 21-6 14 0-8 6-5 19-5 19 5 0 11-7 11-7 1-10 14-7 14-7 7 5 21-3 21-3 12 0 13-11 13-11 14 1 13-14 13-14 17 0 11-21 11-21 10-16-8-30-8-30 3-9-8-15-8-15 0 0-10-9-14-19-4-9-3-17-3-17-5-1-10 10-10 10 0-17 20-35 20-35 34-14 37-35 37-35 82 19 52-39 52-39 0 0-15-15-11-39 4-25-18-22-18-22 18 8-3 17-3 17 0 0-26 12-6 40 19 28-15 30-15 30 0 0 4-7-8-23-13-16-2-34-2-34 13-3 9-9 9-9-25-35-20-46-20-46l-14-9c-11-22-32-12-32-12 1 11 14 15 14 15-3 5 1 8 1 8 20 9 20 13 24 20 4 7 3 20 3 20l-15 24c-10 0-17 12-17 12-14-16-9-29-7-34 2-4-6-11-11-10-5 0-32-27-32-27l-4 4-4-12c-6-5-26-3-26-3 3 14 20 19 20 19l-2 4 15 6 18 13c10 9 6 24 6 24-18 30-3 39-3 39 4 2 4 10 4 10-52 17-60 62-60 62-12-1-18 7-18 7-10 1-20-24-20-24 1-9 11-6 11-6-8-11 10-9 10-9 7-13 3-30 3-30-13 1-20 18-20 18-30 13-19 38-19 38-20 17-5 33-5 33l21 20c3 13 20 13 20 13l10-10 7-6c0 0 9 26 36 29 27 3 26 17 26 17-3-1-7 2-7 2l-16-7c-9-14-23-5-23-5l-7 11 14 12 10 13 0 5 11 7c-1 10-5 2-5 2z m-44-107c0 0-7 11-16 14-13 4-24-18-24-18l3-8c0 0-3-11-2-11 2 1 9 23 9 23 0 0 8 16 19 4 0 0 8-5 11-4z"/>
<glyph glyph-name="birds" unicode="&#57346;" d="M236 275l-55 23c0 0-84 13-95 39 0 0-2-15 26-27 0 0-37 12-39 22 0 0 4-19 31-25 0 0-21-1-30 13 0 0 4-17 24-19 0 0-21 0-28 5 0 0 14-12 28-15 0 0-19-4-22-1 0 0 21-11 29-9l-10-6c0 0 5-8 28-1 0 0-1-6-11-10 0 0 55-66 125-52l5-8-11-52c0 0 12-9 28-10 15 0 28 9 28 9l-9 52 6 8c69-16 127 47 127 47-11 5-12 11-12 11 24-8 29 0 29 0l-10 6c8-3 29 8 29 8-3-3-22 2-22 2 14 2 29 14 29 14-8-5-28-4-28-4 19 1 25 18 25 18-10-14-31-12-31-12 27 5 32 24 32 24-2-10-40-20-40-20 29 10 27 25 27 25-12-25-96-35-96-35l-56-20c0 0-6 10-6 24 0 15-15 24-35 14l-1-5c0 0-9 1-16-7 0 0-2-5 1-8 0 0 9 5 13 1 0 0 3-11-7-19z"/>
<glyph glyph-name="insects" unicode="&#57347;" d="M298 293c0 14-17 25-39 25-21 0-38-11-38-25 0-14 17-26 38-26 22 0 39 12 39 26z m-39-30c-23 0-42 14-42 30 0 16 19 29 42 29 24 0 43-13 43-29 0-16-19-30-43-30z m0 52c-19 0-35-10-35-22 0-12 16-22 35-22 19 0 35 10 35 22 0 12-16 22-35 22z m0-37c4 0 10-6 16-20 7-16 11-39 11-62 0-24-4-46-11-63-6-13-12-20-16-20-3 0-10 7-15 20-7 17-11 40-11 63 0 23 4 46 11 62 5 14 12 20 15 20m0 13c-21 0-38-43-38-95 0-53 17-95 38-95 22 0 39 42 39 95 0 52-17 95-39 95z m0 10c0 0 44-1 51-15 0 0 13-93-25-180z m23-209l-27 213 4-1c45 0 53-14 54-16l0-1 0 0c1-1 14-96-25-183z m-18 205l22-177c30 78 21 157 20 165-4 7-26 11-42 12z m-5 4c0 0-44-1-50-15 0 0-14-93 25-180z m-23-209l-5 12c-39 87-26 182-26 183l0 0 1 1c1 2 9 16 53 16l5 1z m-23 193c-1-8-11-87 19-165l23 177c-17-1-38-5-42-12z m72-32c-2 0-4 2-4 4-1 2 0 5 3 6l51 17 10 68 1 1c5 4 16 13 24 8 2-1 3-4 1-7-1-2-4-3-6-1-2 0-7-3-11-6l-9-71-58-19c-1 0-1 0-2 0z m108-77c-5 0-10 1-13 2l-2 1-37 58-54-7c-3 0-5 2-6 4 0 3 2 6 5 6l60 7 38-60c5-1 11-1 12-1 2 2 5 3 7 2 2-2 3-5 2-7-3-4-7-5-12-5z m-34-49c-7 0-15 6-19 9l-1 2-10 68-51 16c-3 1-5 4-4 6 1 3 4 5 7 4l57-18 10-71c5-3 9-6 11-6 2 2 5 1 7-1 1-3 1-6-2-7-1-1-3-2-5-2z m-126 126c0 0-1 0-1 0l-58 19-10 71c-4 3-8 6-10 6-2-2-5-1-7 1-1 3-1 6 2 7 7 5 19-4 24-8l1-1 9-68 52-17c2-1 4-4 3-6-1-2-3-4-5-4z m-107-77c-5 0-10 1-12 5-2 2-1 5 2 7 2 1 5 1 6-2 2 0 7 0 12 1l39 61 60-8c3 0 5-3 4-6 0-2-3-4-5-4l-54 7-37-58-2-1c-3-1-8-2-13-2z m34-49c-2 0-4 1-6 2-2 1-3 4-1 7 1 2 4 3 7 1 1 0 6 3 10 6l10 71 58 18c3 0 6-1 6-4 1-2 0-5-3-6l-52-16-9-68-2-2c-3-3-12-9-18-9z m130 191c0 10-14 18-31 18-17 0-30-8-30-18 0-9 13-17 30-17 17 0 31 8 31 17z m-31-3c-1 0-1 0-2 1-2 1-2 3 0 5l37 41c-5 9-16 38 1 56 2 1 4 1 6 0 1-2 1-4 0-6-17-16 0-48 0-48 1-2 1-4 0-5l-39-43c-1-1-2-1-3-1z m0 0c-1 0-2 0-3 1l-39 43c-1 1-1 3 0 5 0 0 17 32 1 48-2 2-2 4 0 6 1 1 3 1 5 0 18-18 6-47 2-56l37-41c1-2 1-4 0-5-1-1-2-1-3-1z"/>
<glyph glyph-name="buildings" unicode="&#57348;" d="M91 416l0-339 74 0 0 225 53 18 0 96z m167-56l0-47 33-10 0-226 138 0 0 329z m-28-47l52-16 0-220-107 0 0 219z"/>
<glyph glyph-name="sports" unicode="&#57349;" d="M387 418c-1 2-3 3-4 3-1 0-1 0-1 0-24-1-108-13-153-76-6-9-11-18-15-29 2-11 3-15 11-21 4-2 40 1 44-2 9-6 3-2 13-10l9 10-16 12 7 9 15-11 8 11-15 11 6 9 16-11 8 11-16 11 6 10 16-11 8 10 9-6-8-11 15-10-7-9-14 10-8-11 14-10-6-10-15 10-7-11 14-10-6-9-15 10-9-12 15-10-7-10-4 4c6-10 11-22 11-34 0-2 0-5 0-7 9 9 21 16 34 18 4 1 8 1 13 1 4 0 9 0 13-1 0 0 0 0-1 0 34 44 41 105 22 182z m-34-323c-41 0-73 33-73 74 0 40 33 73 73 73 40 0 73-33 73-73 0-41-33-74-73-74z m0 138c-36 0-65-29-65-64 0-36 29-65 65-65 36 0 65 29 65 65 0 35-29 64-65 64z m-45-118l-6 7c1 0 2 1 3 2l6-6c-2-2-3-3-3-3z m9 9l-6 6c2 2 4 4 5 6l7-5c-2-2-4-5-6-7z m11 14l-7 5c2 2 3 4 4 7l8-4c-2-2-3-5-5-8z m8 17l-8 2c1 3 1 5 1 8l9-1c-1-3-1-6-2-9z m-6 17c0 3-1 5-1 8l8 2c0-3 1-6 1-9z m-4 15c-1 2-2 5-4 7l7 5c2-3 3-6 5-8z m-9 13c-1 2-3 4-5 6l6 6c2-2 4-4 6-6z m-11 12c-1 0-2 1-4 2l5 7c2-1 3-2 4-3z m92-97c0 0-1 1-3 3l5 6c2-1 3-2 3-2z m-10 9c-2 2-4 5-5 7l6 5c2-2 4-4 6-6z m-11 14c-1 3-3 6-4 8l8 4c1-3 2-5 4-7z m-7 17c-1 3-2 6-2 9l8 1c1-3 1-5 2-8z m6 17l-8 1c0 3 0 6 1 9l8-2c0-3-1-5-1-8z m4 15l-8 4c1 2 3 5 5 8l7-5c-2-2-3-5-4-7z m8 13l-6 6c2 2 4 4 6 6l6-6c-2-2-4-4-6-6z m12 12l-5 6c1 1 2 2 3 3l5-7c-1-1-2-2-3-2z m-226-12l-88 0c0-32 14-61 36-81l-2 2c0 0 50 34 54 79z m-54 84l2 2c-22-20-36-49-36-81l88 0c0 28-19 55-54 79z m60-79l18 0 0 112c-29 0-54-11-74-29 37-25 55-53 56-83z m72-64c-17 19-27 39-28 59l-21 0 0-112c29 0 55 11 75 30-4 3-15 11-26 23z m-73 59c-1-20-11-40-28-59-12-14-24-22-27-24 20-18 45-29 74-29l0 112z m135 22c-4 24-16 45-32 61-35-24-52-50-53-78l67 0c5 7 11 13 18 17z m-31-57c0 6 1 11 2 16 2 7 4 13 8 19l-63 0c3-42 45-74 52-78 4 4 8 8 11 12-6 9-9 20-10 31z m-59 40c0 29 18 57 54 82-20 18-46 30-75 30l0-112z"/>
<glyph glyph-name="businesses" unicode="&#57350;" d="M411 97l-292 0 0 187 292 0z m-120 158l-146 0 0-105 146 0z m93 0l-65 0 0-142 65 0z m-207-45c-1 0-2 0-3 0-1 0-1 0-2 0-1 0-2 0-3 0 0 0-1 1-2 1 1 2 2 3 3 6 1-1 2-1 3-1 0 0 1 0 2 0 1 0 1 0 1 0 0 0 1 1 0 1 0 0 0 0 0 1 0 0 0 0 0 0-1 0-1 0-2 0 0 0-1 0-2 0 0 0-1 0-2 0-1 0-1 1-2 1-1 0-1 1-2 1 0 1 0 1-1 2 0 1 0 2 0 3 1 1 1 2 2 3 1 1 1 1 2 2 2 0 3 1 4 1 1 0 3 1 4 0 2 0 4 0 5-1-2-2-2-3-4-5 0 0-1 1-2 1-1 0-1 0-2 0 0 0-1-1-1-1 0 0-1 0-1 0 1-1 1-1 1-1 0 0 1 0 2 0 1 0 2 0 2 0 1 0 2-1 3-1 1 0 2-1 2-1 1-1 1-2 1-3 1-1 0-2 0-3 0-1-1-2-1-3-1 0-2-1-3-1-1-1-1-1-2-2z m20 5c-3-1-4-1-7-1-1 5-1 8-2 14-2 0-3-1-6-1 0 2 0 3-1 6 8 1 12 1 19 2 0-2 0-3 1-6-3 0-4 0-6 0 1-6 1-9 2-14z m4 10c0 2 0 3 1 5 0 1 1 2 2 3 1 1 3 2 4 2 2 1 3 1 5 1 2 0 4 0 5 0 2-1 3-2 4-3 1-1 2-2 3-3 0-1 0-3 0-4 0-2 0-3-1-5-1-1-1-2-3-3-1-1-2-2-3-2-2-1-3-1-5-1-1 0-3 0-4 1-2 0-3 1-4 2-1 1-2 2-3 3 0 1-1 3-1 4z m8 1c0-1 0-2 0-2 1-1 1-1 1-1 1-1 1-1 2-1 0-1 1-1 1-1 1 0 2 0 2 1 1 0 1 0 1 1 1 0 1 0 1 1 1 0 1 1 1 2 0 0 0 1-1 2 0 0 0 1-1 1 0 0 0 1-1 1 0 0-1 0-2 0 0 0-1 0-2 0 0-1-1-1-1-1 0-1-1-1-1-2 0 0 0-1 0-1z m20 9c4 0 6 0 10-1 1 0 2 0 3-1 1 0 2 0 3-1 1-1 1-2 2-2 0-1 0-2 0-4 0-1-1-2-2-3-1-1-2-1-3-1 2-4 2-6 4-9-3 0-5 0-8 1-1 3-2 5-3 8 0 0 0 0 0 0 0-3-1-5-1-7-3 0-4 0-7 0 1 8 1 12 2 20z m7-9c0 0 0 0 1 0 0 0 0 0 1 0 0 0 0 0 1 0 0 0 0 0 0 0 0 1 1 1 1 1 0 1 0 1 0 1 0 0-1 0-1 1 0 0 0 0-1 0 0 0 0 0 0 0-1 0-1 0-2 0 0-1 0-2 0-3z m16 6c6-2 9-2 15-4 0-2-1-3-1-5-3 1-5 1-8 2 0-1 0-1-1-2 3-1 5-1 8-2-1-2-1-3-2-5-3 1-4 1-7 2 0-1 0-1 0-2 3-1 5-1 8-2-1-2-1-3-2-5-6 1-8 2-14 3 1 8 2 12 4 20z m-133 158l292 0 0-24-292 0z m146-24l146 0 24-82-339 0 23 82z m-91 0l-25 0-21-82 26 0z m51 0l-25 0-13-82 28 0z m150-82l26 0-21 82-25 0z m-62 0l28 0-12 82-25 0z m-39 82l-20 0-5-82 30 0z"/>
<glyph glyph-name="colors" unicode="&#57351;" d="M259 281c-5 0-98 0-98 25 0 24 93 25 98 25 4 0 97 0 97-25 0-25-93-25-97-25z m-88 25c3-6 34-15 88-15 53 0 84 9 87 15-3 5-34 14-87 14-54 0-85-9-88-14z m180-199c0 0-32-18-92-18-68 0-93 18-93 18l0 191 51-12 39-2 41 14 54 0 0-191z m-73 139c0 11-9 19-19 19-11 0-20-8-20-19 0-11 9-19 20-19 10 0 19 8 19 19z m-6 0c0-8-6-14-13-14-8 0-14 6-14 14 0 8 6 14 14 14 7 0 13-6 13-14z m86-70c-24 0-48 11-71 33-18 17-29 34-29 35-1 2-1 4 1 5 1 1 1 1 2 1 1 0 3-1 3-2 1-1 41-64 94-64 1 0 2 0 3 0 2 0 4-2 4-4 0-2-2-4-4-4-1 0-2 0-3 0z m-97 73c1 0 2-1 2-2 1 0 42-64 95-64 1 0 2 0 3 0 0 0 0 0 0 0 1 0 2-1 3-3 0-1-2-2-3-3-1 0-2 0-3 0-23 0-47 12-70 33-18 17-29 34-29 35-1 1 0 2 1 3 0 0 1 1 1 1m0 2c-1 0-2 0-3-1-2-1-3-4-1-7 0-1 11-18 29-35 23-22 48-33 72-33 1 0 2 0 3 0 3 0 5 2 5 5 0 3-2 5-5 5 0 0 0 0 0 0-1 0-2 0-3 0-52 0-92 63-92 64-1 1-3 2-5 2z m-35 36l37 55 32-3 14 22 33 51c14 20 31 16 31 16 0 0 10-14-2-35l-33-51-13-21 16-28-23-36-39 25z m138 128c-3 2-7 1-9-2-1-3-1-7 2-9 3-2 7-1 9 2 2 3 1 7-2 9z"/>
<glyph glyph-name="creatures" unicode="&#57352;" d="M213 399c0 0-6 0-1 7 6 7 21-6 14 0-7 6-5 19-5 19 5 0 11-7 11-7 2-10 15-7 15-7 6 5 21-3 21-3 11 0 12-11 12-11 14 1 13-14 13-14 17 0 12-21 12-21 9-16-9-30-9-30 3-9-8-15-8-15 0 0-10-9-14-19-4-9-2-17-2-17-6-1-11 10-11 10 1-17 20-35 20-35 35-14 37-35 37-35 82 19 53-39 53-39 0 0-15-15-12-39 4-25-18-22-18-22 18 8-3 17-3 17 0 0-26 12-6 40 19 28-15 30-15 30 0 0 5-7-8-23-13-16-1-34-1-34 12-3 9-9 9-9-26-35-21-46-21-46l-14-9c-11-22-32-12-32-12 1 11 14 15 14 15-2 5 1 8 1 8 20 9 21 13 25 20 4 7 2 20 2 20l-15 24c-9 0-17 12-17 12-14-16-9-29-7-34 2-4-6-11-11-10-5 0-32-27-32-27l-3 4-4-12c-6-5-27-3-27-3 4 14 21 19 21 19l-2 4 14 6 18 13c10 9 6 24 6 24-18 30-3 39-3 39 5 2 5 10 5 10-53 17-61 62-61 62-11-1-18 7-18 7-10 1-20-24-20-24 1-9 12-6 12-6-9-11 9-9 9-9 8-13 3-30 3-30-13 2-19 19-19 19-31 12-20 37-20 37-19 18-5 33-5 33l21 20c3 14 20 13 20 13l10-10 7-6c0 0 9 26 36 29 27 3 27 17 27 17-4-1-8 2-8 2l-16-7c-9-14-22-5-22-5l-7 11 13 12 10 13 0 5 12 7c-2 10-6 2-6 2z m-44-107c0 0-7 11-16 14-13 4-24-18-24-18l3-8c0 0-3-11-1-11 2 1 8 23 8 23 0 0 9 16 20 4 0 0 7-5 10-4z m50 96l-48 58 56-50z m30-91l50-9c0 0 63 41 25 100 0 0-3 18 21 12 0 0 75-54 75-180 0 0-11 33-27 33-5 0-17-22-17-22 0 0-11 23-18 22-5-1-12-16-12-16 0 0-8 25-17 25-6 0-10-7-15-9-14-5-59 16-59 16z"/>
<glyph glyph-name="emotions" unicode="&#57353;" d="M329 278c48 0 87-39 87-87 0-48-39-86-87-86-48 0-86 38-86 86 0 48 38 87 86 87m0 10c-53 0-97-43-97-97 0-53 44-97 97-97 54 0 97 44 97 97 0 54-43 97-97 97z m-63-103c0 0 6-56 63-56 57 0 64 56 64 56z m48 37c0-11-8-20-19-20-11 0-20 9-20 20 0 11 9 20 20 20 11 0 19-9 19-20z m70 0c0-11-9-20-20-20-11 0-20 9-20 20 0 11 9 20 20 20 11 0 20-9 20-20z m-98 97c0-53-43-97-97-97-53 0-97 44-97 97 0 54 44 97 97 97 54 0 97-43 97-97z m-45-49c0 0-5 37-52 37-46 0-51-37-51-37m17 101c-11 0-20-9-20-20 0-11 9-20 20-20 11 0 20 9 20 20 0 11-9 20-20 20z m69 0c-11 0-20-9-20-20 0-11 9-20 20-20 11 0 20 9 20 20 0 11-9 20-20 20z"/>
<glyph glyph-name="family" unicode="&#57354;" d="M298 389c0-14-12-26-26-26-15 0-27 12-27 26 0 15 12 27 27 27 14 0 26-12 26-27z m-26-184l3-1 0-103c12-7 23 0 23 0l3 104 27 0-35 107c-2 7 5 5 5 5l28-68c17-2 20 5 20 5l-31 83c-4 17-22 20-22 20l-43 0c0 0-18-3-22-20l-30-83c0 0 2-10 20-9l28 72c0 0 6 2 4-5l-34-107 26 0 4-104c0 0 10-7 22 0l0 103z m-94 184c0-14-12-26-26-26-15 0-27 12-27 26 0 15 12 27 27 27 14 0 26-12 26-27z m-26-157c3 0 4-5 4-5l0-126c11-11 28 0 28 0l0 213c2 4 7 0 7 0l0-70c11-15 25 0 25 0l0 88c0 0-2 25-28 25l-73 0c-25 0-28-25-28-25l0-88c0 0 14-15 25 0l0 70c0 0 5 4 7 0l0-212c0 0 17-12 28 0l0 125c0 0 1 5 5 5z m246 69c0-10-8-18-18-18-10 0-18 8-18 18 0 10 8 18 18 18 10 0 18-8 18-18z m-18-128l3-1-1-72c9-5 16 0 16 0l3 73 18 0-24 74c-2 5 3 4 3 4l20-50c12-1 14 6 14 6l-22 58c-3 11-15 14-15 14l-26 0c0 0-4 3-18-12l-7-7-3 8c0 0-20-6-15-19l9-17 27 22c0 0 5-2 3-7l-24-74 18 0 3-73c0 0 7-5 16 0l-1 73z"/>
<glyph glyph-name="flowers" unicode="&#57355;" d="M268 265c0 0 6 23 55 18 0 0-19-32-55-18z m-22-38c-3 38-17 56-17 56l6 5c1-1 15-20 18-61z m27 0l-8 0c3 41 19 56 20 57l5-6c0 0-14-14-17-51z m-13 24l-8 0c1 8 2 17 5 25l7-2c-2-8-4-16-4-23z m12-1l-8 0c1 9 1 19 0 29l8 1c1-11 0-21 0-30z m-13 72c-3 14-5 26-9 36l7 3c4-11 7-23 10-38z m-7-76l-7 1c0 11 0 22 0 34l7 1c1-13 1-24 0-36z m-8 149l9 10 8-14c1 2 2 4 3 5l-10 18-13-15c2-1 3-2 3-4z m34-10c0 0 0 0 1 0 0 13-6 24-7 24l-2 4-2-3c-7-11-21-34-24-47 2-4 4-7 4-11 0 0 1 0 1 0 3 0 7 2 10 3 2 2 4 3 6 5 0 2 0 5 1 7-3-3-6-5-10-7-6-4-8-3-8-3-2 3 8 24 22 46 2-5 5-13 3-22 0 0 1 1 1 1 1 2 3 3 4 3z m-39 27l-1 4-3-4c0 0-12-14-10-30 0-4 2-8 3-12 1 2 3 3 4 4-1 3-2 5-2 8-1 10 4 19 7 24 10-24 16-47 13-49 0 0-1 0-4 1 1-2 2-4 2-6 1 0 1 0 2 0 1 0 2 0 3 1 8 6-7 43-14 59z m62-323c0 7-19 12-42 12-23 0-41-5-41-12 0-6 18-11 41-11 23 0 42 5 42 11z m6 165c0 6-22 11-48 11-26 0-47-5-47-11 0-7 21-12 47-12 26 0 48 5 48 12z m-89-165c0 0 17 39-4 86-20 47 5 63 5 63l-7 16 95 0-8-16c0 0 25-17 5-63-20-47-3-86-3-86m-17 281l11 8 4-12c1 1 3 2 5 2l-7 19-16-13c2-1 3-3 3-4z m-2-43c-4 0-8 4-11 7-7 9-10 18-9 28 2 16 16 27 16 27l3 3 1-4c4-17 11-56 2-60-1-1-2-1-2-1z m-4 55c-4-3-10-11-11-21-1-8 2-16 8-24 5-5 7-5 7-5 3 2 1 25-4 50z m36-3l-1 4-3-3c-12-12-40-41-34-50 1-2 3-3 6-3 1 0 3 0 4 1 1 1 2 2 3 2 1 1 2 2 2 3 2 3 5 4 8 3 1-1 2-1 2-2 5 3 9 8 12 13 7 15 1 31 1 32z m-6-30c-3-7-10-12-20-15-6-3-8-2-8-1-2 3 12 21 30 40 1-5 2-15-2-24z m-80 16l-15 12-6-19c0 0 1-1 1-1 1 0 3-1 3-2l5 13 11-9c0 0 0 0 0 0 0 2 0 4 1 6z m6-40c1 0 1 0 2 0 0-1 0-1 0-1 2 1 3 2 5 2 0 0 0 0 0 0 6 8 9 17 8 26-2 16-16 27-16 27l-3 3-1-4c-2-10-5-26-6-39 2 0 4-1 5-3 0 10 2 23 5 36 4-4 10-11 11-21 1-8-2-16-8-24-1-1-2-1-2-2z m-5 8c1-1 0-2 1-3 0-1 0-1 1-1 0-1 1-2 2-3 1 0 2-1 2-1-2 12-24 34-34 45l-3 3-1-4c-1-1-6-18 1-32 2-3 4-6 6-8 1 0 1 0 2 1 2 0 4-1 6-2 2-1 4-3 6-4 0 0 0 1 0 1-7 3-12 8-15 14-5 9-4 18-3 24 9-9 16-17 22-24 0-1 2-4 7-6z m69-13c0-1 0-1 0-1l14 8 3-13c1 1 2 2 3 2 1 0 1 1 1 1l-3 18-18-10c1-1 1-3 0-5z m3 19l0 4-4-2c0-1-13-8-19-21 1-1 2-1 2-2 1-1 1-3 2-5 0 1 0 1 0 2 3 9 10 16 14 19 1-26-1-49-4-50 0 0-2 0-5 6-2 3-4 6-5 10 0-3-1-5-3-7 1-2 2-4 3-6 2-4 6-8 10-8 0 0 1 0 1 0 10 3 9 43 8 60z m-7-61c-4 0-7 1-8 4-4 10 27 34 41 44l4 3 0-4c0-1 3-18-6-32-6-8-14-12-26-14-1 0-3-1-5-1z m33 41c-21-15-38-31-37-35 0 0 2-1 9 0 9 1 17 6 22 12 5 8 6 18 6 23z m-107 6l-17 10-4-20c0 0 0 0 0 0 0 0 1 0 1 0 2 0 3-1 4-2l2 14 13-7c0 2 0 4 1 5z m17-31c0 2 0 3-1 5-1-3-2-6-4-9-3-6-5-6-5-6-4 1-6 24-5 50 4-3 10-8 13-15 1 2 2 3 4 3-6 12-17 18-18 19l-3 2-1-4c-1-17-2-57 8-60 1 0 1-1 2-1 4 0 7 5 10 9 0 2 1 3 2 5-1 0-1 1-2 2z m-12-16c-2 0-4 1-6 1-11 2-20 6-25 14-10 14-7 31-7 32l1 4 3-3c14-10 46-34 42-44-1-3-5-4-8-4z m-33 41c0-5 0-15 6-23 5-7 12-11 22-12 7-1 8 0 8 0 2 4-15 20-36 35z m57-6c0 0 0-1 0-1l8 13 10-13c0 3 1 4 3 5l-14 17-10-17c2 0 3-2 3-4z m11-41c-1 0-2 0-3 1-8 6 7 43 14 59l2 3 2-3c1 0 12-14 10-30-1-10-6-18-15-25-3-3-7-5-10-5z m14 54c-10-24-17-47-14-49 0 0 2 0 7 4 8 6 12 13 13 21 1 10-3 19-6 24z m-13-54c-3 0-7 2-10 3-10 6-16 14-18 23-4 16 5 31 5 32l2 3 2-3c9-15 30-49 23-56-1-2-3-2-4-2z m-20 51c-3-5-6-14-3-24 2-8 7-14 16-19 6-4 7-3 7-3 3 3-7 24-20 46z m2-55c0 0-8 22-56 12 0 0 22-29 56-12z"/>
<glyph glyph-name="gallery" unicode="&#57356;" d="M274 219l-149 0c-10 0-19 8-19 19l0 148c0 11 9 20 19 20l149 0c10 0 19-9 19-20l0-148c0-11-9-19-19-19z m212 0l-148 0c-10 0-19 8-19 19l0 148c0 11 9 20 19 20l148 0c11 0 20-9 20-20l0-148c0-11-9-19-20-19z m0-213l-148 0c-10 0-19 9-19 20l0 148c0 10 9 19 19 19l148 0c11 0 20-9 20-19l0-148c0-11-9-20-20-20z m-212 0l-149 0c-10 0-19 9-19 20l0 148c0 10 9 19 19 19l149 0c10 0 19-9 19-19l0-148c0-11-9-20-19-20z"/>
<glyph glyph-name="genders" unicode="&#57357;" d="M374 391c0-15-12-27-27-27-15 0-26 12-26 27 0 15 11 26 26 26 15 0 27-11 27-26z m-27-160c4 0 5-5 5-5l0-128c11-11 28 0 28 0l0 217c3 3 7 0 7 0l0-72c12-15 26 0 26 0l0 89c0 0-3 26-29 26l-74 0c-26 0-28-26-28-26l0-89c0 0 14-15 25 0l0 72c0 0 5 3 7 0l0-217c0 0 17-11 29 0l0 128c0 0 1 5 4 5z m-139 160c0-15-12-27-27-27-14 0-26 12-26 27 0 15 12 26 26 26 15 0 27-11 27-26z m-27-188l4 0 0-106c12-7 23 0 23 0l3 107 27 0-35 108c-2 7 5 5 5 5l28-72c18-2 21 9 21 9l-31 84c-5 17-23 20-23 20l-44 0c0 0-18-3-22-20l-31-84c0 0 3-11 20-9l29 72c0 0 7 2 4-5l-35-108 27 0 4-107c0 0 10-7 23 0l-1 106z"/>
<glyph glyph-name="height" unicode="&#57358;" d="M225 387c0-15-12-27-27-27-15 0-27 12-27 27 0 15 12 27 27 27 15 0 27-12 27-27z m-27-162c4 0 4-5 4-5l0-129c12-12 29 0 29 0l0 219c3 3 7 0 7 0l0-73c12-15 26 0 26 0l0 91c0 0-2 26-28 26l-76 0c-26 0-28-26-28-26l0-91c0 0 14-15 26 0l0 73c0 0 4 3 7 0l0-219c0 0 17-12 29 0l0 129c-1 0 0 5 4 5z m127 164l19 25 20-25z m39-278l-20-25-19 25z m-25 282l11 0 0-288-11 0z"/>
<glyph glyph-name="metals" unicode="&#57360;" d="M259 338c-24 0-43 19-43 43 0 24 19 44 43 44 24 0 44-20 44-44 0-24-20-43-44-43z m0 62c-10 0-19-8-19-19 0-10 9-19 19-19 11 0 20 9 20 19 0 11-9 19-20 19z m0-50l103 0 20-17 46-260-337 0 46 260 20 17z m-55-91l10 0 0 30-9 0-11-7 5-7 5 3z m26-6l5 14-9 0-4-14z m27 5c1 1 3 2 4 2 1 1 1 2 2 3 1 1 1 3 2 4 0 1 0 2 0 3 1 2 1 3 1 4 0 2 0 3-1 5 0 2-1 4-2 5-1 2-2 3-4 4-2 1-4 2-7 2-2 0-4-1-5-1-1 0-2-1-3-2-1-1-2-2-3-3-1-1-1-2-2-3 0-1 0-2 0-4-1-1-1-2-1-3 0-1 0-2 1-4 0-1 0-2 0-3 1-1 1-3 2-4 1-1 2-2 3-2 1-1 2-2 3-2 2-1 3-1 5-1 2 0 3 0 5 0z m-3 22c0 0 0-1 0-1 1-1 1-2 1-3 0 0 0-1 0-2 0-1 0-2 0-3 0 0 0-1-1-2 0-1 0-1 0-2-1 0-1 0-2 0-1 0-1 0-2 0 0 1 0 1 0 2-1 1-1 2-1 2 0 1 0 2 0 3 0 1 0 2 0 2 0 1 0 2 1 3 0 0 0 1 0 1 1 1 1 1 2 1 1 0 1 0 2-1z m33-22c1 1 2 2 3 2 1 1 2 2 3 3 1 1 1 3 2 4 0 1 0 2 0 3 1 2 1 3 1 4 0 2-1 3-1 5 0 2-1 4-2 5-1 2-2 3-4 4-2 1-4 2-7 2-2 0-4-1-5-1-1 0-3-1-4-2-1-1-1-2-2-3-1-1-1-2-2-3 0-1 0-2 0-4-1-1-1-2-1-3 0-1 0-2 1-4 0-1 0-2 0-3 1-1 1-3 2-4 1-1 1-2 2-2 1-1 3-2 4-2 2-1 3-1 5-1 2 0 3 0 5 0z m-3 22c0 0 0-1 0-1 1-1 1-2 1-3 0 0 0-1 0-2 0-1 0-2 0-3 0 0 0-1-1-2 0-1 0-1 0-2-1 0-1 0-2 0-1 0-1 0-2 0 0 1 0 1 0 2-1 1-1 2-1 2 0 1 0 2 0 3 0 1 0 2 0 2 0 1 0 2 1 3 0 0 0 1 0 1 1 1 1 1 2 1 1 0 1 0 2-1z m33-22c1 1 2 2 3 2 1 1 2 2 3 3 1 1 1 3 2 4 0 1 0 2 0 3 1 2 1 3 1 4 0 2-1 3-1 5 0 2-1 4-2 5-1 2-2 3-4 4-2 1-4 2-7 2-2 0-4-1-5-1-1 0-3-1-4-2-1-1-1-2-2-3-1-1-1-2-2-3 0-1 0-2 0-4-1-1-1-2-1-3 0-1 0-2 1-4 0-1 0-2 0-3 1-1 1-3 2-4 1-1 1-2 2-2 1-1 3-2 4-2 1-1 3-1 5-1 2 0 3 0 5 0z m-3 22c0 0 0-1 0-1 1-1 1-2 1-3 0 0 0-1 0-2 0-1 0-2 0-3 0 0 0-1-1-2 0-1 0-1 0-2-1 0-1 0-2 0-1 0-1 0-2 0 0 1 0 1 0 2-1 1-1 2-1 2 0 1 0 2 0 3 0 1 0 2 0 2 0 1 0 2 1 3 0 0 0 1 0 1 1 1 1 1 2 1 1 0 1 0 2-1z m-86-51l7 0 0 9-25 0 0-9 8 0 0-22 10 0z m31-5c0 1-1 2-3 3-1 1-2 2-4 3-1 0-3 1-5 1-1 0-3-1-4-1-2-1-3-2-5-3-1-1-2-2-2-3-1-2-1-3-1-5 0-2 0-4 1-6 0-1 1-2 2-3 2-1 3-2 5-3 1 0 3-1 4-1 2 0 4 1 5 1 2 1 3 2 4 3 2 1 3 2 3 3 1 2 1 4 1 6 0 1 0 3-1 5z m-9-3c1-1 1-1 1-2 0-2 0-2-1-3-1-1-1-1-3-1-1 0-2 0-2 1-1 1-1 2-1 3 0 1 0 1 1 2 0 1 1 1 2 1 1 0 2 0 3-1z m14-14l10 0 0 12c0 1 0 2 0 2 1 1 1 1 2 1 1 0 1 0 2 0 0-1 0-2 0-3l0-12 10 0 0 14c0 1 0 2 0 3-1 1-1 2-2 3 0 1-1 2-2 2-1 1-2 1-4 1-1 0-3 0-4-1-1 0-2-1-2-2l0 3-10 0z m46 10c0 1-1 2-1 2-1 1-2 1-3 2 0 0-1 0-2 0-1 1-2 1-3 1 0 0 0 0 0 1 0 0 0 0 0 0 1 0 1 0 2 0 0 0 1 0 2 0 0 0 1-1 2-1l4 5c-1 1-2 2-4 3-2 0-4 0-5 0-1 0-2 0-4 0-1 0-2-1-3-1-1-1-2-2-2-3-1-1-1-2-1-4 0-1 0-2 0-3 1 0 1-1 2-2 0 0 1-1 2-1 1 0 1 0 2-1 1 0 2 0 3 0 0-1 1-1 1-1 0-1-1-1-1-1 0 0 0 0-1 0-1 0-1 0-2 0-1 1-2 1-3 2l-5-6c2-1 3-1 5-2 2-1 4-1 6-1 1 0 2 0 3 1 1 0 2 0 3 1 1 1 2 1 3 2 0 1 1 3 1 4 0 1 0 2-1 3z"/>
<glyph glyph-name="numbers" unicode="&#57361;" d="M390 386l0-261-261 0 0 261 261 0m22 22l-305 0 0-306 305 0 0 306z m-204-192l-59 0 0 24 55 83 31 0 0-83 17 0 0-24-17 0 0-27-27 0 0 27z m0 70l-1 0-29-46 30 0z m58-67l52 47c3 2 6 5 8 8 3 3 4 7 4 11 0 4-1 8-5 10-3 3-7 4-11 4-5 0-10-2-13-5-3-3-4-7-5-12l-28 2c0 7 2 13 4 18 3 5 6 10 10 13 4 4 9 6 15 8 6 2 12 2 18 2 6 0 12 0 17-2 6-2 10-4 14-8 4-3 7-7 9-12 3-5 4-11 4-18 0-4-1-8-2-12 0-3-2-6-3-9-2-3-4-6-6-8-2-2-4-5-7-7l-41-35 60 0 0-25-94 0 0 30z"/>
<glyph glyph-name="occupations" unicode="&#57362;" d="M395 156c0-30-24-54-54-54-30 0-54 24-54 54 0 30 24 54 54 54 30 0 54-24 54-54z m-163 0c0-30-24-54-53-54-30 0-54 24-54 54 0 30 24 54 54 54 29 0 53-24 53-54z m163 165c0-30-24-54-54-54-30 0-54 24-54 54 0 30 24 54 54 54 30 0 54-24 54-54z m-18 65c0 14-17 26-37 26-20 0-37-12-37-26 0-15 17-26 37-26 20 0 37 11 37 26z m-119-177c0 0 6-35 66-37l17 0 0 37c0 0-26-7-41-6-16 1-33 22-42 6z m166 0c0 0-7-35-67-37l-16 0 0 37c0 0 26-7 41-6 16 1 33 22 42 6z m-39-26l-88 0 8 55 72 0z m-44 163l-47 0-18 41c0 0 27 18 65 19m0-60l47 0 18 41c0 0-27 18-65 19m-109-85c0-30-24-54-53-54-30 0-54 24-54 54 0 30 24 54 54 54 29 0 53-24 53-54z m-49-6c17-7 34-5 34-5 10 15 0 28 0 28l-38-10-39 10c0 0-9-13 0-28 0 0 17-3 35 5l4 1z m-29 50c0 5-5 10-11 10-6 0-10-5-10-10 0-5 4-9 10-9 6 0 11 4 11 9z m-12 2c0 0-8 22-57 13 0 0 23-30 57-13z m-2-2c0 0 18 15-9 57 0 0-19-32 9-57z m39-133l7 5c12 1 18-8 18-8l3-11 5 4c13-2 13-33 13-33 6-3 11-10 11-10l-57-10-58 10c0 0 6 7 12 10 0 0-1 31 13 33l4-4 4 11c0 0 5 9 17 8z"/>
<glyph glyph-name="organizations" unicode="&#57363;" d="M299 259l17 0 0-54-17 0z m33 0l18 0 0-54-18 0z m36 0l18 0 0-54-18 0z m-260-167l0 167 82-36 0 36 84-36 144 0 0-131-310 0z m231 101l-14 0 0-14 14 0z m23 0l-14 0 0-14 14 0z m23 0l-15 0 0-14 15 0z m23 0l-15 0 0-14 15 0z m-91 0l-15 0 0-14 15 0z m-91 0l-15 0 0-14 15 0z m23 0l-15 0 0-14 15 0z m22 0l-14 0 0-14 14 0z m23 0l-14 0 0-14 14 0z m-159 0l-14 0 0-14 14 0z m23 0l-15 0 0-14 15 0z m23 0l-15 0 0-14 15 0z m22 0l-14 0 0-14 14 0z m55 151c-3 15-17 26-31 23-15-3-24-17-21-33 3-15 17-26 31-23 14 2 24 17 21 33z m-14-4c3-15 16-25 30-22 13 2 22 16 19 31-3 14-16 24-29 22-14-3-23-17-20-31z m59-42c-3 12-14 21-25 18-12-2-19-14-17-26 2-13 13-21 25-19 11 2 19 14 17 27z m-16-23c2-7 8-12 15-11 6 1 10 8 9 15-1 7-8 12-14 11-7-2-11-8-10-15z m-8 39c-2 12-12 19-23 17-10-2-17-12-15-24 2-11 12-18 23-16 10 2 17 12 15 23z m-14 54c-2 14-15 24-29 21-13-2-22-16-19-30 3-15 16-24 29-22 13 3 22 16 19 31z m-33-8c-3 15-17 26-31 23-15-3-24-17-21-33 3-16 17-26 31-23 14 2 23 17 21 33z m16 15c-3 16-18 27-33 25-15-3-25-19-22-36 3-16 18-27 33-24 15 2 25 18 22 35z m-45 16c-3 16-17 26-31 24-15-3-24-18-21-33 3-16 17-26 31-24 14 3 24 18 21 33z m-4-31c-3 15-17 26-31 23-14-3-23-17-21-33 3-16 17-26 32-23 14 2 23 17 20 33z m-30 18c-3 16-17 26-31 24-14-3-23-18-21-33 3-16 17-26 32-24 14 3 23 18 20 33z m125-57c-1 10-9 16-18 14-8-2-14-10-12-19 2-9 10-15 18-14 9 2 14 10 12 19z m20-57c-1 5-5 7-9 7-4-1-6-5-6-9 1-5 5-7 9-7 4 1 6 5 6 9z m-25 79c-2 16-16 26-31 24-14-3-23-18-20-33 2-16 16-26 31-24 14 3 23 18 20 33z m-13-4c3-15 16-24 29-22 14 3 23 17 20 31-3 15-16 25-29 22-14-2-23-16-20-31z m58-42c-2 13-13 21-25 19-11-2-19-14-16-27 2-12 13-20 25-18 11 2 19 14 16 26z m-15-23c1-7 8-12 14-11 7 2 11 8 10 16-2 7-8 11-14 10-7-1-11-8-10-15z m-9 40c-2 11-12 19-22 17-10-2-17-13-15-24 2-11 12-19 22-17 11 2 18 13 15 24z m-13 53c-3 15-16 24-29 22-13-2-22-16-19-31 2-14 15-24 29-21 13 2 22 16 19 30z m-34-8c-2 16-16 26-31 23-14-2-23-17-20-32 2-16 16-26 31-24 14 3 23 18 20 33z m17 15c-3 17-18 28-33 25-16-3-25-18-22-35 3-17 18-28 33-25 15 3 25 19 22 35z m-46 17c-2 15-16 26-31 23-14-3-23-17-20-33 2-15 16-26 31-23 14 3 23 17 20 33z m92-70c-2 9-10 15-18 14-8-2-14-11-12-20 1-9 10-15 18-13 8 1 14 10 12 19z m19-57c-1 4-4 7-8 6-4 0-7-4-6-9 1-4 5-7 9-6 3 1 6 5 5 9z m-19 81c-3 16-17 27-31 24-15-2-24-17-21-33 3-16 17-27 31-24 15 2 24 17 21 33z m-14-4c3-15 16-25 30-23 13 3 22 17 19 32-2 15-16 25-29 23-14-3-22-17-20-32z m59-43c-2 13-14 21-25 19-12-2-19-14-17-27 3-13 14-21 25-19 12 2 19 14 17 27z m-15-24c1-7 8-12 14-11 7 1 11 8 9 15-1 8-7 13-14 11-6-1-10-8-9-15z m-9 41c-2 12-12 19-23 18-10-2-17-13-14-25 2-11 12-19 22-17 11 2 17 13 15 24z m-14 55c-2 15-15 25-29 22-13-2-22-16-19-31 3-15 16-25 29-22 13 2 22 16 19 31z m-33-8c-3 16-17 26-32 24-14-3-23-18-20-34 3-16 17-27 31-24 14 3 24 18 21 34z m16 15c-3 17-18 29-33 26-15-3-25-19-22-36 3-17 18-29 33-26 16 3 25 19 22 36z m-45 17c-3 16-17 27-32 24-14-2-23-17-20-33 3-16 17-27 31-24 14 2 24 17 21 33z m92-72c-2 10-10 16-19 14-8-1-13-10-12-19 2-10 10-16 19-14 8 1 13 10 12 19z m19-59c-1 5-5 8-8 7-4-1-7-5-6-9 1-4 5-7 9-7 3 1 6 5 5 9z"/>
<glyph glyph-name="personalities" unicode="&#57364;" d="M329 278c48 0 87-39 87-87 0-48-39-86-87-86-48 0-86 38-86 86 0 48 38 87 86 87m0 10c-53 0-97-43-97-97 0-53 44-97 97-97 54 0 97 44 97 97 0 54-43 97-97 97z m-43 31c0-53-43-97-97-97-53 0-97 44-97 97 0 54 44 97 97 97 54 0 97-43 97-97z m-44-45c2 0 3 2 3 4-1 1-7 26-56 26-48 0-55-25-55-26 0-2 1-4 3-4 2-1 4 0 5 3 0 0 1 4 7 9 6 5 18 10 40 10 42 0 48-19 48-19 0-2 2-3 4-3 0 0 0 0 1 0z m-36 59c3-7 10-12 18-12 11 0 20 8 20 19 0 4-1 7-3 10-11-6-23-12-35-17z m-68 17c-1-3-2-6-2-10 0-11 9-19 20-19 8 0 15 4 18 11-12 6-24 12-36 18z m128-165c0 0 6-56 63-56 57 0 64 56 64 56z m101 27l-13-7 2 14-10 10 14 3 7 12 6-12 14-3-10-10 2-14z m-74 0l-13-7 3 14-11 10 15 3 6 12 6-12 15-3-11-10 3-14z"/>
<glyph glyph-name="size" unicode="&#57365;" d="M352 405c0-13-11-24-25-24-13 0-24 11-24 24 0 14 11 25 24 25 14 0 25-11 25-25z m-25-146c4 0 4-5 4-5l0-116c11-11 26 0 26 0l0 198c3 3 7 0 7 0l0-66c10-14 23 0 23 0l0 82c0 0-2 23-26 23l-68 0c-23 0-26-23-26-23l0-82c0 0 13-14 24 0l0 66c0 0 4 3 6 0l0-198c0 0 16-11 26 0l0 116c0 0 1 5 4 5z m-124 92c0-10-9-19-20-19-11 0-19 9-19 19 0 11 8 20 19 20 11 0 20-9 20-20z m-20-117c3 0 3-4 3-4l0-93c9-8 21 0 21 0l0 158c2 3 5 0 5 0l0-52c9-11 19 0 19 0l0 65c0 0-2 19-21 19l-54 0c-19 0-21-19-21-19l0-65c0 0 10-11 19 0l0 52c0 0 3 3 5 0l0-158c0 0 13-8 21 0l0 93c0 0 1 4 3 4z m220-117l25-20-25-19z m-287-39l-25 19 25 20z m-5 25l296 0 0-11-296 0z"/>
<glyph glyph-name="age" unicode="&#57344;" d="M374 165l0 131c3 2 4 5 4 9 0 10-16 18-37 22l0 37-23 0 0-33c-5 0-9 1-13 1l0 29-23 0 0-27c-4 0-9 0-12 0l0 24-23 0 0-24c-4 0-8 0-12 0l0 27-23 0 0-29c-4 0-7-1-11-1l0 33-23 0 0-37c-21-4-37-12-37-22 0-4 1-7 4-9l0-131c-32-6-53-16-53-30 0-26 84-40 167-40 83 0 167 14 167 40 0 14-21 24-52 30z m-50 193l11 0 0-51-11 0z m-36-3l11 0 0-51-11 0z m-35-3l11 0 0-51-11 0z m-35 3l11 0 0-51-11 0z m-34 3l11 0 0-51-11 0z m-6-40l0-17 23 0 0 21c3 0 7 1 11 1l0-25 23 0 0 27c4 0 8 0 12 0l0-30 23 0 0 30c4 0 8 0 12 0l0-27 23 0 0 25c4 0 9-1 13-1l0-21 23 0 0 16c18-4 28-9 28-12 0-7-39-21-110-21-71 0-109 14-109 21 0 3 9 8 28 13z m81-214c-105 0-158 20-158 31 0 6 15 15 44 21l0-13c0-14 51-25 114-25 64 0 115 11 115 25 0 0 0 1 0 1l0 12c29-6 43-15 43-21 0-11-52-31-158-31z m67 266l1 0 0 0c1 0 11 1 14 9 4 7 1 16-8 29l-5 7 0-9c0 0 0-6-6-10-4-3-7-8-6-13 0-5 4-10 10-13z m-1 21c4 2 6 5 7 8 4-8 6-14 4-18-2-4-6-5-8-5-4 2-6 4-6 8 0 2 1 5 3 7z m-139-21l1 0 0-1c1 1 11 1 14 10 4 7 1 16-8 28l-5 8 0-9c0 0-1-6-6-11-4-3-7-7-6-12 0-6 4-10 10-13z m-1 21c4 2 6 5 7 8 4-8 6-14 4-18-2-4-7-5-8-5-4 2-6 4-6 7 0 3 1 6 3 8z m72-25l1-1 0 0c1 0 11 1 14 9 4 7 1 17-8 29l-5 8 0-10c0 0-1-6-6-10-4-3-7-8-6-12 0-6 4-11 10-13z m-1 20c4 3 6 6 7 8 4-7 6-13 4-17-2-4-7-5-8-6-4 2-6 5-6 8-1 3 1 6 3 7z m34-19l0 0 1-1c1 1 11 1 14 10 4 7 1 16-8 28l-5 8 0-9c0 0-1-6-6-11-4-3-7-7-6-12 0-6 4-10 10-13z m-1 21c4 2 6 5 7 7 4-7 6-13 4-17-2-4-7-5-8-5-4 2-6 4-6 7-1 3 1 6 3 8z m-69-20l1 0 1-1c0 1 10 1 14 10 3 7 0 16-9 28l-5 8 0-9c0 0 0-6-6-11-4-3-6-7-6-12 0-6 4-10 10-13z m0 21c3 2 5 5 6 7 5-7 6-13 4-17-2-4-6-5-8-5-4 2-6 4-6 7 0 3 1 6 4 8z"/>
<glyph glyph-name="home" unicode="&#57359;" d="M433 323l-172 86c-3 2-7 2-10 0l-172-86c-13-6-9-30 5-30l18 0 0-177c0-8 7-14 15-14l278 0c8 0 14 6 14 14l0 177 19 0c14 0 18 24 5 30z"/>
<glyph glyph-name="back" unicode="&#57366;" d="M142 286l265 0 0-60-265 0z m106 116l42-42-101-101 106-107-42-42-148 149z"/>
<glyph glyph-name="close" unicode="&#57368;" d="M346 124l-222 222 42 42 222-222z m-222 42l222 222 42-42-222-222z"/>
<glyph glyph-name="refresh" unicode="&#57369;" d="M378 225c11 11 22 26 34 38-1 78-62 141-142 148-85 8-161-55-169-140-8-86 55-162 141-170 38-3 75 8 104 28l-47 47c-15-8-33-12-51-11-51 5-88 50-83 100 5 50 49 87 100 82 47-4 83-45 82-92 11-10 21-20 31-30z m-1-74l-97 97 38 38 59-59 58 59 39-38z"/>
<glyph glyph-name="forward" unicode="&#57367;" d="M105 286l265 0 0-60-265 0z m159-176l-42 42 101 101-106 107 42 42 148-149z"/>
</font>
</defs>
</svg>
